<svg id="visual" viewBox="0 0 900 600" width="900" height="600" xmlns="http://www.w3.org/2000/svg" xmlns:xlink="http://www.w3.org/1999/xlink" version="1.1"><rect x="0" y="0" width="900" height="600" fill="#161b22"></rect><defs><linearGradient id="grad1_0" x1="33.3%" y1="100%" x2="100%" y2="0%"><stop offset="20%" stop-color="#161b22" stop-opacity="1"></stop><stop offset="80%" stop-color="#161b22" stop-opacity="1"></stop></linearGradient></defs><defs><linearGradient id="grad2_0" x1="0%" y1="100%" x2="66.7%" y2="0%"><stop offset="20%" stop-color="#161b22" stop-opacity="1"></stop><stop offset="80%" stop-color="#161b22" stop-opacity="1"></stop></linearGradient></defs><g transform="translate(900, 600)"><path d="M-351.5 0C-333.3 -25.9 -315 -51.9 -311 -83.3C-307.1 -114.8 -317.4 -151.9 -304.4 -175.8C-291.5 -199.7 -255.3 -210.5 -231.2 -231.2C-207.1 -252 -195 -282.7 -172.5 -298.8C-150 -314.9 -116.9 -316.3 -86.4 -322.6C-55.9 -329 -28 -340.3 0 -351.5L0 0Z" fill="#4849C8"></path></g><g transform="translate(0, 0)"><path d="M351.5 0C346.6 30.5 341.6 61 329.4 88.3C317.2 115.5 297.7 139.4 279.7 161.5C261.8 183.6 245.4 203.9 229.8 229.8C214.2 255.7 199.5 287.2 175.8 304.4C152 321.7 119.3 324.9 88.5 330.3C57.7 335.8 28.9 343.7 0 351.5L0 0Z" fill="#4849C8"></path></g></svg>